<?xml version="1.0" standalone="no"?><!DOCTYPE svg PUBLIC "-//W3C//DTD SVG 1.1//EN" "http://www.w3.org/Graphics/SVG/1.1/DTD/svg11.dtd"><svg t="1714031736231" class="icon" viewBox="0 0 1024 1024" version="1.1" xmlns="http://www.w3.org/2000/svg" p-id="4307" xmlns:xlink="http://www.w3.org/1999/xlink" width="200" height="200"><path d="M910.768 744.608c18.352 0 33.232 14.88 33.232 33.232v132.928C944 929.12 929.12 944 910.768 944H246.16a33.232 33.232 0 0 1-33.232-33.232v-132.928c0-18.352 14.88-33.232 33.232-33.232h664.608zM644.928 412.32c18.352 0 33.232 14.88 33.232 33.232v132.928c0 18.352-14.88 33.232-33.232 33.232H113.232A33.232 33.232 0 0 1 80 578.464v-132.928c0-18.352 14.88-33.232 33.232-33.232h531.68zM910.768 80C929.12 80 944 94.88 944 113.232v132.928c0 18.352-14.88 33.232-33.232 33.232H512a33.232 33.232 0 0 1-33.232-33.232V113.232C478.768 94.88 493.648 80 512 80h398.768z" p-id="4308"></path></svg>