<svg width="44" height="45" viewBox="0 0 44 45" fill="none" xmlns="http://www.w3.org/2000/svg">
<g id="gate">
<path id="Union" fill-rule="evenodd" clip-rule="evenodd" d="M1.78378 44.1217C0.798627 44.1217 0 43.327 0 42.3466V3.29369C0 2.31331 0.798625 1.51855 1.78378 1.51855H10.1081C11.0933 1.51855 11.8919 2.31331 11.8919 3.29368L11.8919 13.9735L32.1081 13.9735V3.29369C32.1081 2.31331 32.9067 1.51855 33.8919 1.51855H42.2162C43.2014 1.51855 44 2.31331 44 3.29368V42.3466C44 43.327 43.2014 44.1217 42.2162 44.1217H33.8919C32.9067 44.1217 32.1081 43.327 32.1081 42.3466V40.8624H11.8919V42.3466C11.8919 43.327 11.0933 44.1217 10.1081 44.1217H1.78378ZM1.18919 42.3466C1.18919 42.6734 1.4554 42.9383 1.78378 42.9383H10.1081C10.4365 42.9383 10.7027 42.6734 10.7027 42.3466L10.7027 3.29369C10.7027 2.96689 10.4365 2.70197 10.1081 2.70197L1.78378 2.70197C1.4554 2.70197 1.18919 2.96689 1.18919 3.29369L1.18919 42.3466ZM33.8919 42.9383C33.5635 42.9383 33.2973 42.6734 33.2973 42.3466L33.2973 3.29369C33.2973 2.96689 33.5635 2.70197 33.8919 2.70197L42.2162 2.70197C42.5446 2.70197 42.8108 2.96689 42.8108 3.29369V42.3466C42.8108 42.6734 42.5446 42.9383 42.2162 42.9383H33.8919Z" fill="currentColor"/>
<path id="Vector" d="M20.8595 18.6655L20.8595 31.2753L16.2962 26.5057L16.2962 29.8772L22 35.8396L27.7036 29.8772L27.7036 26.5057L23.1408 31.2753L23.1408 18.6655L20.8595 18.6655Z" fill="white"/>
</g>
</svg>
